<svg width="108" height="114" viewBox="0 0 108 114" fill="none" xmlns="http://www.w3.org/2000/svg">
<path fill-rule="evenodd" clip-rule="evenodd" d="M49.4851 0.487977C41.6461 2.45198 33.873 9.64697 32.28 16.412L31.4181 20.074L22.853 20.591C15.773 21.018 13.5891 21.57 10.2581 23.775C3.13005 28.492 2.31505 31.61 0.980054 59.272C-0.0429456 80.486 0.0040518 84.126 1.36005 88.791C4.31905 98.97 10.7051 106.247 20.7521 110.888C25.2691 112.974 26.7851 113.074 53.9851 113.074C81.1851 113.074 82.7011 112.974 87.2181 110.888C97.2851 106.238 103.651 98.971 106.628 88.731C108.006 83.989 108.053 80.477 107.019 59.211C105.677 31.627 104.857 28.503 97.7121 23.775C94.3901 21.576 92.1901 21.017 85.1841 20.591L76.6861 20.074L75.3711 15.55C72.4501 5.50097 59.5151 -2.02602 49.4851 0.487977ZM61.7851 5.98498C66.5941 8.49698 71.9851 15.38 71.9851 19.008C71.9851 20.371 69.6541 20.574 53.9851 20.574C38.3951 20.574 35.9851 20.366 35.9851 19.024C35.9851 15.362 41.3531 8.56998 46.4851 5.73798C49.3311 4.16798 58.5931 4.31698 61.7851 5.98498ZM94.0011 26.392C100.584 29.828 101.676 33.936 102.87 59.734C104.041 85.037 103.53 89.293 98.441 96.637C95.314 101.15 89.3661 105.616 84.0861 107.415C79.4101 109.009 28.5601 109.009 23.8841 107.415C18.6041 105.616 12.6561 101.15 9.52905 96.637C4.53005 89.424 4.05306 85.424 5.15906 59.954C6.03806 39.711 6.40205 36.569 8.31905 32.692C12.3421 24.553 12.2241 24.574 53.9851 24.574C87.3561 24.574 90.8181 24.731 94.0011 26.392ZM31.5951 39.395C31.2791 39.908 31.6891 42.58 32.5061 45.334C35.5501 55.582 46.828 62.724 57.452 61.131C66.553 59.766 75.3661 51.023 76.1571 42.574C76.4311 39.656 76.1601 39.074 74.5301 39.074C73.0661 39.074 72.3731 40.043 71.7741 42.928C70.0351 51.299 63.13 56.574 53.911 56.574C45.038 56.574 37.791 50.752 36.047 42.222C35.425 39.182 32.7691 37.496 31.5951 39.395Z" fill="black"/>
</svg>
