<svg width="328" height="328" viewBox="0 0 328 328" fill="none" xmlns="http://www.w3.org/2000/svg">
<path fill-rule="evenodd" clip-rule="evenodd" d="M55.0024 1.52614C51.4274 2.28914 44.2284 5.01915 39.0054 7.59215C31.1254 11.4721 28.0364 13.7401 20.8754 20.9011C13.6044 28.1721 11.5274 31.0241 7.70737 38.9851C-0.354635 55.7821 0.00236301 50.0221 0.00236301 163.426C0.00236301 277.373 -0.299638 272.495 7.76736 288.936C16.0254 305.768 30.7034 318.287 49.8354 324.819L57.5024 327.436H164.002H270.502L278.169 324.819C290.396 320.644 298.638 315.502 307.667 306.413C314.392 299.643 316.625 296.541 320.332 288.815C328.358 272.091 328.003 277.887 327.995 163.739C327.988 65.7622 327.922 62.1611 325.98 54.0601C322.865 41.0661 317.111 30.9801 307.036 20.8521C299.925 13.7041 296.908 11.4881 288.999 7.60113C272.728 -0.394865 278.014 -0.0768526 163.187 0.0361474C80.5014 0.118147 60.2884 0.396138 55.0024 1.52614ZM273.002 15.0321C282.663 18.4161 289.715 22.6621 296.776 29.3481C302.707 34.9641 304.913 37.9661 308.535 45.3481C311.531 51.4551 313.334 56.7321 314.033 61.4361C314.716 66.0361 314.963 102.716 314.753 168.436C314.468 257.485 314.256 268.938 312.815 273.022C305.259 294.433 289.245 309.025 268.473 313.425C258.077 315.627 69.9274 315.627 59.5314 313.425C36.8124 308.612 19.1664 290.867 14.4564 268.097C13.1454 261.757 12.9814 247.068 13.2544 160.097C13.5364 70.4231 13.7474 58.9351 15.1894 54.8501C23.1324 32.3471 40.7084 17.1751 63.0024 13.5801C64.3774 13.3581 111.177 13.2401 167.002 13.3161C256.599 13.4391 269.03 13.6411 273.002 15.0321ZM159.863 103.846C157.508 105.751 157.501 105.824 157.204 131.346L156.906 156.936H132.065C109.413 156.936 107.023 157.099 104.946 158.78C102.184 161.016 101.881 166.243 104.369 168.734C105.865 170.231 109.136 170.472 131.488 170.734L156.906 171.032L157.204 196.574C157.501 222.046 157.508 222.121 159.863 224.026C163.034 226.592 165.598 226.431 168.547 223.481L171.002 221.027V195.981V170.936H196.047H221.093L223.547 168.481C226.662 165.367 226.662 162.505 223.547 159.391L221.093 156.936H196.047H171.002V131.891V106.845L168.547 104.391C165.598 101.441 163.034 101.28 159.863 103.846Z" fill="black"/>
</svg>
